# xmcd
#
# Track frame offsets: 
#        150
#        20886
#        45415
#        68515
#        86777
#        102888
#        120648
#        136648
#        161848
#        194608
#
# Disc length: 2970 seconds
#
# Revision: 0
# Processed by: cddbd v1.5.2PL0 Copyright (c) Steve Scherf et al.
# Submitted via: ExactAudioCopyFreeDBPlugin 1.0
#
DISCID=830b980a
DTITLE=Joe Bonamassa - An Acoustic Evening at the Vienna Opera House C
DTITLE=D2
DYEAR=2013
DGENRE=Blues
TTITLE0=High Water Everywhere
TTITLE1=Jockey Full Of Bourbon
TTITLE2=Richmond
TTITLE3=Stones In My Passway
TTITLE4=Ball Peen Hammer
TTITLE5=Black Lung Heartache
TTITLE6=Mountain Time
TTITLE7=Woke Up Dreaming
TTITLE8=Sloe Gin
TTITLE9=Seagull
EXTD=
EXTT0=
EXTT1=
EXTT2=
EXTT3=
EXTT4=
EXTT5=
EXTT6=
EXTT7=
EXTT8=
EXTT9=
PLAYORDER=
